<?xml version="1.0" encoding="utf-8"?>
<!-- Generator: Adobe Illustrator 26.3.1, SVG Export Plug-In . SVG Version: 6.00 Build 0)  -->
<svg version="1.1" id="Layer_1" xmlns="http://www.w3.org/2000/svg" xmlns:xlink="http://www.w3.org/1999/xlink" x="0px" y="0px"
	 viewBox="0 0 64 64" style="enable-background:new 0 0 64 64;" xml:space="preserve">
<style type="text/css">
	.st0{fill:#4C5059;}
	.st1{fill:#5996C6;}
	.st2{fill:#2F6CB5;}
	.st3{fill:#493D42;}
	.st4{fill:#8E4562;}
	.st5{fill:#7B1A4B;}
	.st6{fill:#5D5F63;}
	.st7{fill:#CDDCE5;}
</style>
<circle class="st3" cx="32.8" cy="32.8" r="31.2"/>
<circle class="st4" cx="32" cy="32" r="31.2"/>
<circle class="st5" cx="32" cy="32" r="29.6"/>
<circle class="st6" cx="32.2" cy="51.3" r="5.2"/>
<path class="st6" d="M32.2,40.4L32.2,40.4c-3,0-5.6-2.3-6-5.3L24,16.6c-0.4-3.6,2.4-6.7,6-6.7h4.5c3.6,0,6.4,3.2,6,6.7l-2.2,18.5
	C37.8,38.1,35.2,40.4,32.2,40.4z"/>
<circle class="st7" cx="31.8" cy="51" r="5.2"/>
<path class="st7" d="M31.8,40L31.8,40c-3,0-5.6-2.3-6-5.3l-2.3-18.5c-0.4-3.6,2.4-6.7,6-6.7h4.5c3.6,0,6.4,3.2,6,6.7l-2.2,18.5
	C37.4,37.7,34.9,40,31.8,40z"/>
</svg>
