<?xml version="1.0" encoding="utf-8"?>
<!-- Generator: Adobe Illustrator 26.3.1, SVG Export Plug-In . SVG Version: 6.00 Build 0)  -->
<svg version="1.1" id="Layer_1" xmlns="http://www.w3.org/2000/svg" xmlns:xlink="http://www.w3.org/1999/xlink" x="0px" y="0px"
	 viewBox="0 0 64 64" style="enable-background:new 0 0 64 64;" xml:space="preserve">
<style type="text/css">
	.st0{fill:#4C5059;}
	.st1{fill:#5996C6;}
	.st2{fill:#2F6CB5;}
	.st3{fill:#5D5F63;}
	.st4{fill:#CDDCE5;}
</style>
<circle class="st0" cx="32.8" cy="32.8" r="31.2"/>
<circle class="st1" cx="32" cy="32" r="31.2"/>
<circle class="st2" cx="32" cy="32" r="29.6"/>
<circle class="st3" cx="32.4" cy="51.3" r="5.2"/>
<path class="st3" d="M32.4,40.4L32.4,40.4c-3,0-5.6-2.3-6-5.3l-2.3-18.5c-0.4-3.6,2.4-6.7,6-6.7h4.5c3.6,0,6.4,3.2,6,6.7l-2.2,18.5
	C38,38.1,35.4,40.4,32.4,40.4z"/>
<circle class="st4" cx="32" cy="51" r="5.2"/>
<path class="st4" d="M32,40L32,40c-3,0-5.6-2.3-6-5.3l-2.3-18.5c-0.4-3.6,2.4-6.7,6-6.7h4.5c3.6,0,6.4,3.2,6,6.7L38,34.7
	C37.6,37.7,35.1,40,32,40z"/>
</svg>
